<svg width="236" height="64" fill="none" xmlns="http://www.w3.org/2000/svg"><path d="M88.815 20.993c1.763 0 3.003-.472 3.717-1.41.713-.94 1.069-2.263 1.069-3.966v-1.42h-3.103v1.595c0 .641-.031 1.154-.097 1.54-.067.387-.22.697-.46.93-.24.23-.609.35-1.104.35-.686 0-1.16-.223-1.421-.668-.262-.445-.393-1.17-.393-2.176V8.096c0-.64.04-1.16.12-1.562.08-.404.253-.72.515-.96s.655-.36 1.179-.36c.51 0 .886.11 1.126.337.24.225.388.516.447.873.06.356.088.85.088 1.476v1.53H93.6V7.94c0-1.645-.364-2.907-1.093-3.78-.73-.873-1.958-1.314-3.693-1.314-1.851 0-3.154.504-3.911 1.51-.76 1.005-1.137 2.478-1.137 4.411v6.321c0 1.88.382 3.333 1.148 4.36.763 1.03 2.066 1.544 3.9 1.544zm13.621-11.607v11.367h2.686V3.048h-2.165l-4.85 11.17V3.048h-2.644v17.705h2.119l4.854-11.367zm12.96 10.219c.932-.764 1.396-2.096 1.396-3.988 0-1.85-.443-3.169-1.331-3.957-.888-.79-2.259-1.18-4.11-1.18h-.698V5.453h5.005v-2.41h-8.22v17.708h3.807c1.833.002 3.217-.38 4.151-1.146zm-4.743-6.875h.546c.975 0 1.654.233 2.034.711.375.474.565 1.214.565 2.22 0 1.106-.19 1.866-.576 2.283-.389.415-1.041.622-1.958.622h-.611V12.73zm14.797-3.344v11.367h2.685V3.048h-2.161l-4.851 11.17V3.048h-2.648v17.705h2.119l4.856-11.367zm8.174 3.497h1.772c3.161 0 4.741-1.605 4.741-4.809 0-3.35-1.504-5.028-4.522-5.028h-5.201v17.705h3.212v-7.869h-.002zm0-7.56h1.246c.655 0 1.142.095 1.454.283.314.19.519.471.622.842.102.372.153.908.153 1.607 0 .958-.153 1.628-.461 1.999-.305.371-.895.559-1.77.559h-1.246v-5.29h.002zm12.635 15.67c1.763 0 3.003-.472 3.716-1.41.714-.939 1.068-2.263 1.068-3.966v-1.42h-3.104v1.595c0 .641-.03 1.154-.094 1.54-.067.387-.222.697-.46.93-.243.23-.609.35-1.107.35-.683 0-1.156-.223-1.421-.668-.259-.445-.392-1.17-.392-2.176V8.096c0-.64.039-1.16.12-1.562.08-.404.255-.72.515-.96.262-.24.657-.36 1.178-.36.511 0 .886.11 1.129.337.237.225.388.516.447.873.057.356.085.85.085 1.476v1.53h3.104V7.94c0-1.645-.363-2.907-1.092-3.78-.729-.873-1.957-1.314-3.692-1.314-1.853 0-3.152.504-3.911 1.51-.76 1.005-1.138 2.478-1.138 4.411v6.321c0 1.88.385 3.333 1.148 4.36.764 1.029 2.065 1.544 3.901 1.544zm9.856-8.392h.655l3.081 8.15h3.257l-3.628-9.33 3.366-8.373h-3.213l-2.863 7.43h-.655v-7.43h-3.213v17.703h3.213V12.6zm10.993 4.064h3.082l.698 4.088h2.993l-3.538-17.707h-3.455l-3.54 17.707h3.04l.72-4.088zm1.532-9.485l1.203 7.427h-2.405l1.202-7.427zm13.244 6.403v7.168h3.215V3.048h-4.088c-1.964 0-3.418.415-4.361 1.244-.943.834-1.41 2.115-1.41 3.85 0 1.137.219 2.109.644 2.918.434.808 1.028 1.403 1.783 1.779l-3.54 7.912h3.518l2.82-7.168h1.419zm-2.971-3.07c-.451-.533-.678-1.323-.678-2.373 0-.96.235-1.676.711-2.141.469-.467 1.19-.7 2.15-.7h.786v6.012h-.721c-1.047 0-1.796-.266-2.248-.799zm-91.67 15.895h3.826v15.408h3.191V24.112H84.052v17.704h3.191V26.408zm14.444-2.296h-5.2v17.702h3.212v-7.866h1.772c3.16 0 4.743-1.604 4.743-4.808.002-3.352-1.506-5.028-4.527-5.028zm1.03 7.006c-.305.37-.894.558-1.77.558h-1.246v-5.29h1.246c.655 0 1.142.094 1.454.284.314.19.522.47.624.842.101.371.153.906.153 1.606-.002.958-.153 1.629-.461 2zm9.684 10.941c1.807 0 3.108-.498 3.903-1.491.792-.989 1.191-2.423 1.191-4.304V29.62c0-1.881-.395-3.302-1.181-4.262-.787-.965-2.09-1.443-3.913-1.443-1.835 0-3.149.478-3.935 1.443-.786.96-1.181 2.381-1.181 4.262v6.644c0 1.894.395 3.333 1.181 4.317.786.982 2.1 1.477 3.935 1.477zm-1.835-13.18c0-.85.124-1.494.371-1.939.246-.44.735-.666 1.464-.666s1.211.22 1.454.655c.24.439.36 1.087.36 1.95v8.149c0 .864-.124 1.517-.371 1.968-.247.452-.729.68-1.443.68-.729 0-1.218-.228-1.464-.68-.247-.451-.371-1.106-.371-1.968v-8.15zm12.479-4.767h-3.343l-.308 17.702h2.423l.244-12.346 2.558 12.346h1.942l2.517-12.303.262 12.303h2.401l-.323-17.702h-3.259l-2.604 12.261-2.51-12.261zm10.926-.002v17.706h3.87c1.851 0 3.241-.382 4.175-1.148.936-.764 1.397-2.095 1.397-3.987 0-1.851-.443-3.17-1.329-3.957-.889-.788-2.259-1.181-4.11-1.181h-.786v-7.434h-3.217zm3.85 9.683c.976 0 1.655.234 2.034.712.376.473.568 1.204.568 2.195 0 1.11-.197 1.87-.59 2.296-.395.422-1.052.633-1.964.633h-.681v-5.836h.633zm10.47-9.681h-3.215v17.704h3.215V24.112zm2.317 0v17.702h14.494V24.112h-3.105V39.5h-2.534V24.11h-3.106V39.5h-2.645V24.11h-3.104zm27.585 17.704V24.112h-8.61l-.569 8.634c-.16 2.2-.326 3.751-.505 4.655-.174.903-.423 1.484-.753 1.737-.329.256-.864.376-1.608.36v2.32c.192.016.452.022.788.022 1.414 0 2.459-.288 3.138-.864.679-.574 1.14-1.432 1.388-2.578.249-1.143.446-2.898.592-5.257l.371-6.598h2.558V41.82h3.21v-.005zm9.769-2.206H183.7v-5.88h3.319v-2.255H183.7v-5.091h4.216v-2.275h-7.429v17.707h7.475V39.61zm4.699-5.793h3.606v8h3.236V24.111h-3.236v7.387h-3.606v-7.387h-3.215v17.704h3.215v-7.999zm12.373 0h3.608v8h3.234V24.111h-3.234v7.387h-3.608v-7.387h-3.213v17.704h3.213v-7.999zm11.977 3.911h3.082l.699 4.088h2.994l-3.54-17.707h-3.455l-3.54 17.707h3.042l.718-4.088zm1.53-9.485l1.203 7.432h-2.405l1.202-7.432zm12.373-4.131c-1.968 0-3.422.414-4.36 1.246-.943.83-1.41 2.113-1.41 3.848 0 1.134.218 2.108.643 2.918.43.807 1.026 1.4 1.781 1.78l-3.542 7.912h3.521l2.822-7.17h1.418v7.17h3.217V24.112h-4.09zm.871 8.263h-.72c-1.05 0-1.799-.267-2.248-.8-.452-.53-.681-1.32-.681-2.37 0-.964.236-1.676.709-2.143.474-.465 1.19-.698 2.152-.698h.786v6.01h.002zM94.04 45.175h-3.213l-2.863 7.434h-.655v-7.434h-3.215V62.88h3.215v-8.152h.655l3.081 8.152h3.257l-3.628-9.333 3.366-8.372zm6.229-.196c-1.836 0-3.148.48-3.935 1.44-.786.963-1.181 2.386-1.181 4.263v6.643c0 1.897.395 3.335 1.18 4.32.788.981 2.1 1.475 3.936 1.475 1.807 0 3.108-.498 3.902-1.489.792-.988 1.192-2.425 1.192-4.308v-6.644c0-1.877-.395-3.3-1.181-4.262-.784-.958-2.091-1.438-3.913-1.438zm1.813 13.114c0 .862-.124 1.513-.371 1.965-.246.451-.729.68-1.442.68-.73 0-1.218-.226-1.465-.68-.246-.452-.37-1.105-.37-1.965v-8.151c0-.847.124-1.491.37-1.936.247-.443.736-.67 1.465-.67.729 0 1.213.222 1.453.659.24.436.36 1.087.36 1.947v8.151zm13.944-12.918l-2.599 12.262-2.514-12.262h-3.344l-.308 17.705h2.427l.24-12.349 2.558 12.349h1.947l2.512-12.305.262 12.305h2.407l-.329-17.705h-3.259zm5.775 17.707h3.191V47.469h3.826v15.413h3.189V45.175h-10.206v17.707zm15.079-17.707l-3.54 17.703h3.041l.72-4.088h3.082l.698 4.087h2.994l-3.54-17.702h-3.455zm.548 11.563l1.203-7.431 1.202 7.431h-2.405zm14.645-4.175h-3.606v-7.388h-3.215v17.707h3.215V54.88h3.606v8h3.232V45.176h-3.232v7.388zm8.195 3.782v-11.17h-2.645v17.707h2.119l4.852-11.367v11.367h2.691V45.175h-2.163l-4.854 11.17zm10.721-9.922c-.941.83-1.41 2.113-1.41 3.848 0 1.137.216 2.108.644 2.918.428.808 1.026 1.404 1.778 1.781l-3.537 7.912h3.52l2.818-7.17h1.42v7.17h3.215V45.177h-4.088c-1.97-.002-3.424.415-4.36 1.246zm5.233 1.004v6.013h-.72c-1.047 0-1.798-.266-2.25-.798-.452-.53-.679-1.32-.679-2.37 0-.965.238-1.677.707-2.144.476-.467 1.194-.698 2.157-.698h.785v-.003zM51.476.514H25.814v10.79h25.662V.515zM38.646 7.71a1.797 1.797 0 01-1.8-1.798 1.797 1.797 0 113.598 0c0 .993-.806 1.798-1.799 1.798zm20.146 48.926H18.501v3.236h-4.558v3.24h49.404v-3.24h-4.555v-3.236zM.726 20.574V47.4a8.049 8.049 0 008.05 8.05h4.06V12.521h-4.06c-4.447-.002-8.05 3.604-8.05 8.052zm65.685-8.054h-1.89v42.93h1.89a3.75 3.75 0 003.748-3.745V16.268a3.748 3.748 0 00-3.748-3.748zm6.183 8.516h-1.846V46.94h1.846V21.036zm1.776 9.414h-1.385v7.674h1.386v-.93h2.191v-5.815h-2.191v-.93zm-60.427 25H63.35V12.52H13.943v42.93zm38.902-6.043h-1.369v-4.948h-2.163v4.948h-1.37v-6.076h4.902v6.076zm4.76-2.877c.211.24.386.563.523.965.326.965.56 1.602.701 1.91h-1.475c-.079-.157-.236-.6-.47-1.336-.12-.395-.268-.694-.445-.9-.177-.204-.436-.305-.781-.305h-.26v2.54h-1.353V43.33h1.353v2.534h.127l1.667-2.534h1.665l-2.117 2.706c.365.092.653.258.865.495zm1.761-8.754H44.52c-1.944 0-3.889.819-5.528 2.148-1.331 1.023-2.865 1.639-4.607 1.639-2.047 0-4.095-1.026-5.426-2.56h5.939l3.378-5.018-3.378-5.017h-5.939c1.434-1.535 3.379-2.458 5.426-2.558 1.742 0 3.276.51 4.607 1.639 1.74 1.432 3.584 2.147 5.529 2.147h14.845v7.58zm-25.09-20.138c4.225 0 8.23 1.556 11.231 4.448l-1.89 2.002c-2.447-2.558-5.784-3.78-9.341-3.78-7.563 0-13.68 6.115-13.68 13.68 0 7.564 6.117 13.682 13.68 13.682 3.448 0 6.783-1.338 9.34-3.785l1.891 2.004c-3.001 2.892-7.006 4.448-11.231 4.448-9.008 0-16.35-7.338-16.35-16.347-.002-9.012 7.343-16.352 16.35-16.352zm151.571 32.507c0 .833.568 1.523 1.485 1.523.929 0 1.495-.69 1.495-1.523 0-.828-.566-1.515-1.495-1.515-.917-.002-1.485.688-1.485 1.515zm2.325 0c0 .513-.299.962-.84.962-.533 0-.836-.45-.836-.962 0-.509.303-.958.836-.958.541-.003.84.447.84.958zm2.499 1.523c.945 0 1.491-.714 1.491-1.53 0-.803-.546-1.508-1.369-1.508-.421 0-.81.192-1.045.509.076-.356.377-.695 1.073-.773.481-.052 1.234-.205 1.234-.77h-.616c0 .11-.174.179-.792.27-.971.122-1.458.738-1.458 2.146.002.942.548 1.656 1.482 1.656zm0-2.484c.539 0 .84.45.84.95 0 .526-.301.975-.84.975-.533 0-.834-.45-.834-.975.002-.5.301-.95.834-.95zm3.363-.558c-.917 0-1.486.69-1.486 1.517 0 .831.569 1.523 1.486 1.523.932 0 1.495-.692 1.495-1.523 0-.825-.563-1.517-1.495-1.517zm0 2.483c-.533 0-.834-.45-.834-.964 0-.509.301-.958.834-.958.539 0 .842.45.842.958 0 .515-.303.964-.842.964zm4.876-.964c0-.954-.533-1.517-1.284-1.517-.377 0-.711.179-.927.469V48.7h-.631v3.998h.631v-1.501c.231.312.563.473.927.473.751-.002 1.284-.572 1.284-1.525zm-1.469.964a.95.95 0 01-.742-.392v-1.142c.137-.216.449-.39.742-.39.5 0 .816.403.816.957 0 .564-.316.967-.816.967zm2.763.522l-.142.327c-.085.195-.218.254-.412.254a.699.699 0 01-.241-.049l-.096.566c.09.024.265.04.354.04.45-.005.797-.16.995-.651l1.397-3.416h-.679l-.844 2.167-.845-2.167h-.674l1.187 2.929zm5.061.703v-1.29h-.318v-2.342h-2.235l-.171 1.41c-.098.762-.235.901-.482.962v1.26h.629v-.738h1.951v.738h.626zm-.947-1.29h-1.534c.205-.18.34-.46.384-.864l.102-.928h1.048v1.792zm1.19-.899c0 .833.567 1.523 1.484 1.523.932 0 1.497-.69 1.497-1.523 0-.828-.565-1.515-1.497-1.515-.917-.002-1.484.688-1.484 1.515zm2.326 0c0 .513-.301.962-.842.962-.531 0-.832-.45-.832-.962 0-.509.301-.958.832-.958.541-.003.842.447.842.958zm3.782-.703c0-.413-.305-.742-.857-.742h-1.733v2.894h1.774c.563 0 .873-.334.873-.784a.723.723 0 00-.546-.709.665.665 0 00.489-.66zm-1.957-.192h.993c.205 0 .325.12.325.299 0 .163-.122.29-.325.29h-.993v-.59zm1.01 1.794h-1.013v-.653h1.013c.234 0 .36.153.36.328 0 .205-.137.325-.36.325zm4.088.552v-1.918c0-.78-.563-1.048-1.203-1.048-.464 0-.881.148-1.22.467l.258.439c.253-.249.53-.367.858-.367.404 0 .676.203.676.54v.431c-.209-.246-.545-.373-.934-.373-.473 0-1.006.277-1.006.943 0 .642.533.958 1.006.958.384 0 .72-.137.934-.386v.314h.631zm-1.316-.36c-.354 0-.618-.203-.618-.515 0-.319.264-.522.618-.522.275 0 .543.105.685.301v.44c-.142.193-.41.296-.685.296zm4.627.36v-2.894h-.629v1.135h-1.329v-1.135h-.631v2.894h.631v-1.205h1.329v1.205h.629zm3.311 0v-2.894h-.629l-1.329 1.945v-1.945h-.635v2.894h.607l1.357-2.001v2.001h.629zm3.435-1.392c0-.91-.559-1.576-1.425-1.576-.86 0-1.469.679-1.469 1.512 0 .92.648 1.526 1.517 1.526.46 0 .886-.146 1.176-.421l-.29-.41c-.205.202-.537.316-.823.316-.546 0-.873-.36-.923-.795h2.235v-.152h.002zm-2.241-.293c.03-.353.277-.77.816-.77.569 0 .803.425.814.77h-1.63zm-35.733 6.061a.85.85 0 01-.689-.367l-.389.367c.205.275.544.513 1.109.513.879 0 1.499-.642 1.499-1.521 0-.873-.617-1.515-1.499-1.515-.565 0-.904.238-1.109.515l.389.365a.84.84 0 01.689-.365c.437 0 .755.269.845.718h-1.301v.546h1.31c-.09.467-.402.744-.854.744zm1.773 0v.513c.635 0 .995-.437 1.108-1.486l.105-.93h1.045v2.344h.629v-2.894h-2.235l-.172 1.405c-.096.767-.236 1.048-.48 1.048zm4.943.515c.465 0 .89-.144 1.181-.419l-.291-.415c-.205.206-.536.319-.822.319-.546 0-.873-.36-.924-.797h2.235v-.15c0-.913-.558-1.576-1.425-1.576-.86 0-1.469.679-1.469 1.515 0 .919.648 1.523 1.515 1.523zm-.046-2.523c.57 0 .803.421.814.768h-1.63c.03-.358.277-.768.816-.768zm1.956-.443v2.894h.631v-.781l.399-.415.888 1.196h.793l-1.231-1.582 1.204-1.312h-.777l-1.276 1.395V53.52h-.631zm4.212 2.894V54.07h.834v-.548h-2.29v.548h.827v2.346h.629zm1.255-2.896v3.998h.631v-1.501c.233.31.563.473.929.473.751 0 1.282-.57 1.282-1.525 0-.952-.531-1.513-1.282-1.513-.379 0-.713.18-.929.467v-.397h-.631v-.002zm1.373.484c.499 0 .816.404.816.956 0 .568-.319.967-.816.967a.946.946 0 01-.742-.39v-1.144c.137-.214.449-.389.742-.389zm3.304 2.484c.93 0 1.497-.692 1.497-1.526 0-.825-.567-1.512-1.497-1.512-.917 0-1.488.688-1.488 1.513 0 .833.571 1.525 1.488 1.525zm0-2.484c.541 0 .84.45.84.956 0 .518-.299.967-.84.967-.532 0-.834-.45-.834-.967 0-.506.302-.956.834-.956zm4.315 3.15h.626v-1.29h-.318V53.52h-2.235l-.17 1.408c-.099.764-.236.903-.483.965v1.259h.629v-.738h1.951v.738zm-.321-1.29h-1.534c.205-.18.34-.46.384-.864l.102-.928h1.048v1.792zm4.018-.233a.72.72 0 00-.545-.71.666.666 0 00.484-.66c0-.412-.303-.741-.855-.741h-1.733v2.894h1.774c.563.002.875-.336.875-.784zm-2.019-1.561h.993c.206 0 .323.12.323.299 0 .164-.12.29-.323.29h-.993v-.59zm0 1.794v-.653h1.013c.231 0 .36.153.36.328 0 .205-.139.323-.36.323h-1.013v.002zm3.335-.395v-1.95h-.633v2.897h.607l1.355-2.001v2.001h.627V53.52h-.627l-1.329 1.949zm2.678.947h.631V54.07h1.565v-.548h-2.196v2.894zm3.809-2.97c-.465 0-.882.15-1.218.469l.257.434c.251-.242.533-.364.858-.364.404 0 .679.207.679.541v.432c-.21-.249-.546-.373-.939-.373-.473 0-1.006.277-1.006.943 0 .64.533.958 1.006.958.387 0 .721-.14.939-.384v.312h.628v-1.918c0-.782-.565-1.05-1.204-1.05zm.576 2.311c-.144.196-.413.299-.69.299-.353 0-.618-.203-.618-.517 0-.315.265-.517.618-.517.277 0 .546.1.69.298v.437zm1.047-1.687h.828v2.346h.628V54.07h.834v-.548h-2.29v.548zm4.001-.622c-.86 0-1.469.679-1.469 1.512 0 .92.648 1.526 1.517 1.526.46 0 .886-.146 1.176-.421l-.29-.41c-.205.202-.537.316-.823.316-.545 0-.873-.36-.923-.795h2.235v-.148c.004-.915-.554-1.58-1.423-1.58zm-.816 1.283c.03-.353.277-.77.816-.77.57 0 .803.425.814.77h-1.63zm2.953.197c-.096.764-.232 1.045-.48 1.045v.515c.635 0 .993-.439 1.108-1.488l.103-.932h1.047v2.346h.631v-2.896h-2.237l-.172 1.41zm3.758.541v-1.95h-.631v2.897h.605l1.355-2.001v2.001h.631V53.52h-.631l-1.329 1.949zm-46.289 4.822v-1.95h-.631v2.896h.605l1.355-2.001v2.001h.631V58.34h-.631l-1.329 1.95zm4.64-.81h-1.329v-1.138h-.631v2.894h.631v-1.204h1.329v1.204h.631v-2.894h-.631v1.137zm2.7-.655c.281 0 .502.115.665.342l.413-.386c-.205-.277-.546-.513-1.109-.513-.879 0-1.499.642-1.499 1.513 0 .883.618 1.525 1.499 1.525.563 0 .904-.242 1.109-.517l-.413-.382a.783.783 0 01-.665.34c-.526 0-.873-.401-.873-.966-.002-.56.347-.956.873-.956zm1.237.065h.827v2.346h.629V58.89h.834v-.548h-2.29v.548zm4.269-.624c-.38 0-.714.179-.93.47v-.398h-.63v4h.63v-1.503c.234.312.564.473.93.473.751 0 1.281-.57 1.281-1.523 0-.954-.53-1.52-1.281-1.52zm-.188 2.484a.945.945 0 01-.742-.393v-1.142c.138-.216.448-.39.742-.39.5 0 .817.403.817.958 0 .563-.317.967-.817.967zm3.095-.238l-.849-2.17h-.67l1.19 2.931-.144.33c-.086.192-.219.25-.413.25a.766.766 0 01-.242-.047l-.094.565c.089.024.264.042.354.042.451-.007.796-.162.997-.653l1.395-3.416h-.679l-.845 2.168zm3.449-.302l-.801-1.868h-.823v2.894h.631v-2.014l.866 2.014h.255l.86-2.014v2.014h.633v-2.894h-.827l-.794 1.869zm3.627-1.942c-.858 0-1.469.679-1.469 1.513 0 .918.648 1.525 1.515 1.525.46 0 .888-.146 1.176-.421l-.288-.41c-.205.203-.539.316-.823.316-.545 0-.875-.36-.923-.794h2.233v-.149c.004-.914-.55-1.58-1.421-1.58zm-.816 1.283c.032-.353.277-.77.816-.77.57 0 .803.425.814.77h-1.63zm4.732-.071h-1.327v-1.138h-.631v2.894h.631v-1.204h1.327v1.204h.628v-2.894h-.628v1.137zm1.051-.59h.828v2.346h.628V58.89h.834v-.548h-2.29v.548z" fill="#fff"/></svg>