<svg width="20" height="22" fill="none" xmlns="http://www.w3.org/2000/svg"><path fill-rule="evenodd" clip-rule="evenodd" d="M5.779 9.916c1.152 2.717 3.01 4.935 5.275 6.327l1.76-2.112c.217-.26.537-.346.817-.23a7.759 7.759 0 002.858.547c.44 0 .8.432.8.96v3.35c0 .529-.36.96-.8.96-1.706 0-3.338-.376-4.843-1.063a12.585 12.585 0 01-1.554-.848c-2.524-1.615-4.574-4.156-5.834-7.246-.18-.441-.344-.894-.49-1.356a19.197 19.197 0 01-.887-5.808c0-.528.36-.96.8-.96h2.802c.44 0 .8.432.8.96 0 1.2.16 2.352.457 3.427.088.336.024.71-.2.98L5.779 9.916zm8.597 2.128a5.759 5.759 0 002.113.404c1.87 0 2.8 1.683 2.8 2.96v3.35c0 1.277-.93 2.96-2.8 2.96C7.543 21.719.881 13.162.881 3.398c0-1.277.93-2.96 2.8-2.96h2.802c1.87 0 2.8 1.683 2.8 2.96 0 1.022.137 1.996.385 2.896l.003.012.003.012c.232.882.09 1.942-.598 2.767l-.94 1.129a11.803 11.803 0 002.586 3.304l.557-.667c.71-.85 1.927-1.278 3.097-.806z" fill="#006ACC"/></svg>